#ifndef HOLDING_FAST_ENKEL_H
#define HOLDING_FAST_ENKEL_H

const int Holding_fast_enkel_Size1 = 459;
const int Holding_fast_enkel_Size2 = 574;

const int Holding_fast_enkel_Notes1[] PROGMEM = {
  0, NOTE_A5, NOTE_A5, 0, NOTE_A5, 0, NOTE_A5, 0, NOTE_A5, 0, NOTE_A5, 0, NOTE_A5, 0, NOTE_A5, 0, NOTE_A5, 0, NOTE_A5, NOTE_G5, NOTE_F5, NOTE_E5, NOTE_F5, NOTE_G5, NOTE_E5, NOTE_F5, 0, NOTE_D5, 0, NOTE_A5, 0, NOTE_A5, 0, NOTE_A5, 0, NOTE_A5, NOTE_G5, NOTE_F5, NOTE_E5, NOTE_F5, NOTE_G5, NOTE_E5, NOTE_D5, NOTE_A5, 0, NOTE_A5, 0, NOTE_A5, 0, NOTE_AS5, NOTE_G5, NOTE_F5, NOTE_E5, NOTE_F5, NOTE_G5, NOTE_A5, 0, NOTE_F5, 0, NOTE_D5, 0, NOTE_D5, 0, NOTE_F5, 0, NOTE_G5, NOTE_G5, NOTE_F5, NOTE_E5, NOTE_F5, NOTE_E5, 0, NOTE_A5, 0, NOTE_A5, 0, NOTE_A5, 0, NOTE_AS5, 0, NOTE_G5, NOTE_F5, 0, NOTE_E5, NOTE_F5, NOTE_G5, NOTE_A5, NOTE_A5, NOTE_D5, NOTE_D5, NOTE_D5, NOTE_G5, NOTE_G5, NOTE_F5, NOTE_E5, NOTE_D5, NOTE_E5, NOTE_F5, NOTE_A5, 0, NOTE_A5, 0, NOTE_A5, 0, NOTE_AS5, 0, NOTE_G5, NOTE_F5, 0, NOTE_E5, NOTE_F5, NOTE_G5, NOTE_A5, NOTE_A5, NOTE_D5, NOTE_D5, NOTE_D5, NOTE_G5, NOTE_G5, NOTE_F5, NOTE_E5, 0, NOTE_CS5, 0, NOTE_D5, 0, NOTE_CS5, NOTE_D5, 0, NOTE_E5, 0, NOTE_E5, 0, NOTE_DS5, NOTE_E5, 0, NOTE_G5, 0, NOTE_G5, 0, NOTE_E5, NOTE_G5, 0, NOTE_A5, 0, NOTE_A5, NOTE_A5, 0, NOTE_A5, 0, NOTE_A5, NOTE_A5, 0, NOTE_A5, 0, NOTE_A5, 0, NOTE_A5, 0, NOTE_A5, 0, NOTE_A5, NOTE_G5, NOTE_F5, NOTE_E5, NOTE_F5, NOTE_G5, NOTE_E5, NOTE_F5, 0, NOTE_D5, 0, NOTE_A5, 0, NOTE_A5, 0, NOTE_A5, 0, NOTE_A5, NOTE_G5, NOTE_F5, NOTE_E5, NOTE_F5, NOTE_G5, NOTE_E5, NOTE_D5, NOTE_A5, 0, NOTE_A5, 0, NOTE_A5, 0, NOTE_AS5, NOTE_G5, NOTE_F5, NOTE_E5, NOTE_F5, NOTE_G5, NOTE_A5, 0, NOTE_F5, 0, NOTE_D5, 0, NOTE_D5, 0, NOTE_F5, 0, NOTE_G5, NOTE_G5, NOTE_F5, NOTE_E5, NOTE_F5, NOTE_E5, 0, NOTE_A5, 0, NOTE_A5, 0, NOTE_A5, 0, NOTE_AS5, 0, NOTE_G5, NOTE_F5, 0, NOTE_E5, NOTE_F5, NOTE_G5, NOTE_A5, NOTE_A5, NOTE_D5, NOTE_D5, NOTE_D5, NOTE_G5, NOTE_G5, NOTE_F5, NOTE_E5, NOTE_D5, NOTE_E5, NOTE_F5, NOTE_A5, 0, NOTE_A5, 0, NOTE_A5, 0, NOTE_AS5, 0, NOTE_G5, NOTE_F5, 0, NOTE_E5, NOTE_F5, NOTE_G5, NOTE_A5, NOTE_A5, NOTE_D5, NOTE_D5, NOTE_D5, NOTE_G5, NOTE_G5, NOTE_F5, NOTE_E5, 0, NOTE_CS5, 0, NOTE_D5, 0, NOTE_A5, NOTE_A5, NOTE_A5, NOTE_A5, NOTE_G5, NOTE_F5, NOTE_E5, NOTE_F5, NOTE_G5, NOTE_E5, NOTE_F5, 0, NOTE_D5, 0, NOTE_A5, NOTE_A5, NOTE_A5, NOTE_A5, NOTE_G5, NOTE_F5, NOTE_E5, NOTE_F5, NOTE_G5, NOTE_E5, NOTE_D5, NOTE_A5, NOTE_A5, NOTE_A5, NOTE_AS5, NOTE_G5, NOTE_F5, NOTE_E5, NOTE_F5, NOTE_G5, NOTE_A5, 0, NOTE_F5, 0, NOTE_A5, NOTE_A5, NOTE_A5, NOTE_A5, NOTE_G5, NOTE_F5, NOTE_E5, NOTE_F5, NOTE_G5, NOTE_E5, NOTE_F5, 0, NOTE_D5, 0, NOTE_A5, NOTE_A5, NOTE_A5, NOTE_A5, NOTE_G5, NOTE_F5, NOTE_E5, NOTE_F5, NOTE_G5, NOTE_E5, NOTE_D5, NOTE_A5, NOTE_A5, NOTE_A5, NOTE_AS5, NOTE_G5, NOTE_F5, NOTE_E5, NOTE_F5, NOTE_G5, NOTE_A5, 0, NOTE_F5, 0, NOTE_A5, 0, NOTE_A5, 0, NOTE_A5, 0, NOTE_A5, NOTE_G5, NOTE_F5, NOTE_E5, NOTE_F5, NOTE_G5, NOTE_E5, NOTE_F5, 0, NOTE_D5, 0, NOTE_A5, 0, NOTE_A5, 0, NOTE_A5, 0, NOTE_A5, NOTE_G5, NOTE_F5, NOTE_E5, NOTE_F5, NOTE_G5, NOTE_E5, NOTE_D5, NOTE_A5, 0, NOTE_A5, 0, NOTE_A5, 0, NOTE_AS5, NOTE_G5, NOTE_F5, NOTE_E5, NOTE_F5, NOTE_G5, NOTE_A5, 0, NOTE_F5, 0, NOTE_D5, 0, NOTE_D5, 0, NOTE_F5, 0, NOTE_G5, NOTE_G5, NOTE_F5, NOTE_E5, NOTE_F5, NOTE_E5, 0, NOTE_A5, 0, NOTE_A5, 0, NOTE_A5, 0, NOTE_AS5, 0, NOTE_G5, NOTE_F5, 0, NOTE_E5, NOTE_F5, NOTE_G5, NOTE_A5, NOTE_A5, NOTE_D5, NOTE_D5, NOTE_D5, NOTE_G5, NOTE_G5, NOTE_F5, NOTE_E5, NOTE_D5, NOTE_E5, NOTE_F5, NOTE_A5, 0, NOTE_A5, 0, NOTE_A5, 0, NOTE_AS5, 0, NOTE_G5, NOTE_F5, 0, NOTE_E5, NOTE_F5, NOTE_G5, NOTE_A5, NOTE_A5, NOTE_D5, NOTE_D5, NOTE_D5, NOTE_G5, NOTE_G5, NOTE_F5, NOTE_E5, 0, NOTE_CS5, 0, NOTE_D5, 0
};

const int Holding_fast_enkel_Durations1[] PROGMEM = {
  4800, 1200, 300, 900, 450, 28, 112, 300, 300, 9, 300, 900, 450, 28, 112, 300, 300, 9, 600, 300, 300, 300, 300, 300, 300, 450, 28, 600, 122, 450, 28, 112, 300, 300, 9, 600, 300, 300, 300, 300, 300, 300, 1200, 450, 28, 112, 300, 300, 9, 600, 300, 300, 600, 300, 300, 450, 28, 600, 122, 450, 28, 112, 300, 300, 9, 600, 300, 300, 600, 600, 1200, 1200, 225, 253, 112, 300, 300, 9, 300, 478, 112, 150, 159, 600, 300, 300, 900, 300, 600, 300, 300, 600, 300, 300, 600, 300, 300, 1200, 225, 253, 112, 300, 300, 9, 300, 478, 112, 150, 159, 600, 300, 300, 900, 300, 600, 300, 300, 600, 300, 300, 300, 300, 300, 178, 112, 788, 112, 300, 9, 450, 28, 112, 188, 112, 300, 9, 450, 28, 112, 188, 112, 300, 9, 200, 19, 200, 150, 28, 200, 19, 200, 150, 34, 300, 900, 450, 28, 112, 300, 300, 9, 600, 300, 300, 300, 300, 300, 300, 450, 28, 600, 122, 450, 28, 112, 300, 300, 9, 600, 300, 300, 300, 300, 300, 300, 1200, 450, 28, 112, 300, 300, 9, 600, 300, 300, 600, 300, 300, 450, 28, 600, 122, 450, 28, 112, 300, 300, 9, 600, 300, 300, 600, 600, 1200, 1200, 225, 253, 112, 300, 300, 9, 300, 478, 112, 150, 159, 600, 300, 300, 900, 300, 600, 300, 300, 600, 300, 300, 600, 300, 300, 1200, 225, 253, 112, 300, 300, 9, 300, 478, 112, 150, 159, 600, 300, 300, 900, 300, 600, 300, 300, 600, 300, 300, 300, 300, 300, 178, 112, 1209, 600, 300, 300, 600, 300, 300, 300, 300, 300, 300, 450, 28, 600, 122, 600, 300, 300, 600, 300, 300, 300, 300, 300, 300, 1200, 600, 300, 300, 600, 300, 300, 600, 300, 300, 450, 28, 600, 122, 600, 300, 300, 600, 300, 300, 300, 300, 300, 300, 450, 28, 600, 122, 600, 300, 300, 600, 300, 300, 300, 300, 300, 300, 1200, 600, 300, 300, 600, 300, 300, 600, 300, 300, 450, 28, 600, 2522, 450, 28, 112, 300, 300, 9, 600, 300, 300, 300, 300, 300, 300, 450, 28, 600, 122, 450, 28, 112, 300, 300, 9, 600, 300, 300, 300, 300, 300, 300, 1200, 450, 28, 112, 300, 300, 9, 600, 300, 300, 600, 300, 300, 450, 28, 600, 122, 450, 28, 112, 300, 300, 9, 600, 300, 300, 600, 600, 1200, 1200, 225, 253, 112, 300, 300, 9, 300, 478, 112, 150, 159, 600, 300, 300, 900, 300, 600, 300, 300, 600, 300, 300, 600, 300, 300, 1200, 225, 253, 112, 300, 300, 9, 300, 478, 112, 150, 159, 600, 300, 300, 900, 300, 600, 300, 300, 600, 300, 300, 300, 300, 300, 178, 112, 4374
};

const int Holding_fast_enkel_Notes2[] PROGMEM = {
  NOTE_D4, NOTE_F4, NOTE_G4, NOTE_GS4, NOTE_A4, NOTE_GS4, NOTE_G4, NOTE_F4, NOTE_D4, NOTE_F4, NOTE_G4, NOTE_GS4, NOTE_A4, NOTE_GS4, NOTE_G4, NOTE_F4, NOTE_D4, NOTE_F4, NOTE_G4, NOTE_GS4, NOTE_A4, NOTE_GS4, NOTE_G4, NOTE_F4, NOTE_D4, NOTE_F4, NOTE_G4, NOTE_GS4, NOTE_A4, 0, NOTE_D4, NOTE_F4, NOTE_G4, NOTE_GS4, NOTE_A4, NOTE_GS4, NOTE_G4, NOTE_D4, NOTE_A3, NOTE_CS4, NOTE_E4, NOTE_G4, NOTE_D4, NOTE_A3, NOTE_B3, NOTE_CS4, NOTE_D4, NOTE_F4, NOTE_G4, NOTE_GS4, NOTE_A4, NOTE_GS4, NOTE_G4, NOTE_D4, NOTE_A3, NOTE_CS4, NOTE_E4, NOTE_G4, NOTE_D4, NOTE_A3, NOTE_B3, NOTE_CS4, NOTE_D4, NOTE_A3, NOTE_D4, NOTE_F4, NOTE_G4, NOTE_F4, NOTE_E4, NOTE_D5, NOTE_C5, NOTE_C5, NOTE_AS4, NOTE_G4, NOTE_F4, NOTE_D4, NOTE_C4, NOTE_A3, NOTE_AS3, NOTE_D4, NOTE_AS4, NOTE_A4, NOTE_G4, NOTE_D4, NOTE_AS3, NOTE_D4, NOTE_E4, NOTE_D4, NOTE_CS4, NOTE_B3, NOTE_A3, 0, NOTE_A4, NOTE_A4, 0, NOTE_A4, 0, NOTE_D4, 0, NOTE_D4, 0, NOTE_D4, 0, NOTE_G3, 0, NOTE_B3, NOTE_AS3, 0, NOTE_A3, NOTE_A3, NOTE_B3, NOTE_CS4, NOTE_D4, NOTE_F4, NOTE_G4, NOTE_A4, NOTE_AS4, NOTE_G4, NOTE_F4, NOTE_D4, NOTE_G4, NOTE_E4, NOTE_D4, NOTE_AS3, NOTE_A3, NOTE_A3, NOTE_B3, NOTE_CS4, NOTE_D4, NOTE_F4, NOTE_G4, NOTE_GS4, NOTE_D4, 0, NOTE_D4, 0, NOTE_D4, 0, NOTE_G3, 0, NOTE_B3, NOTE_AS3, 0, NOTE_A3, 0, NOTE_A3, 0, NOTE_E4, 0, NOTE_D4, 0, NOTE_D4, NOTE_D4, NOTE_C5, NOTE_AS4, NOTE_A4, NOTE_G4, NOTE_G4, NOTE_D4, NOTE_AS3, NOTE_A3, NOTE_E4, NOTE_A4, NOTE_A4, NOTE_D4, 0, NOTE_A4, NOTE_A4, 0, NOTE_E4, 0, NOTE_E4, 0, NOTE_E4, NOTE_E4, 0, NOTE_CS4, 0, NOTE_CS4, 0, NOTE_CS4, NOTE_AS3, 0, NOTE_A3, 0, NOTE_A3, NOTE_A3, 0, NOTE_A3, 0, NOTE_A3, NOTE_A3, 0, NOTE_A3, 0, NOTE_A4, NOTE_D4, NOTE_F4, NOTE_G4, NOTE_GS4, NOTE_A4, NOTE_GS4, NOTE_G4, NOTE_D4, NOTE_A3, NOTE_CS4, NOTE_E4, NOTE_G4, NOTE_D4, NOTE_A3, NOTE_B3, NOTE_CS4, NOTE_D4, NOTE_F4, NOTE_G4, NOTE_GS4, NOTE_A4, NOTE_GS4, NOTE_G4, NOTE_D4, NOTE_A3, NOTE_CS4, NOTE_E4, NOTE_G4, NOTE_D4, NOTE_A3, NOTE_B3, NOTE_CS4, NOTE_D4, NOTE_A3, NOTE_D4, NOTE_F4, NOTE_G4, NOTE_F4, NOTE_E4, NOTE_D5, NOTE_C5, NOTE_C5, NOTE_AS4, NOTE_G4, NOTE_F4, NOTE_D4, NOTE_C4, NOTE_A3, NOTE_AS3, NOTE_D4, NOTE_AS4, NOTE_A4, NOTE_G4, NOTE_D4, NOTE_AS3, NOTE_D4, NOTE_E4, NOTE_D4, NOTE_CS4, NOTE_B3, NOTE_A3, 0, NOTE_A4, NOTE_A4, 0, NOTE_A4, 0, NOTE_D4, 0, NOTE_D4, 0, NOTE_D4, 0, NOTE_G3, 0, NOTE_B3, NOTE_AS3, 0, NOTE_A3, NOTE_A3, NOTE_B3, NOTE_CS4, NOTE_D4, NOTE_F4, NOTE_G4, NOTE_A4, NOTE_AS4, NOTE_G4, NOTE_F4, NOTE_D4, NOTE_G4, NOTE_E4, NOTE_D4, NOTE_AS3, NOTE_A3, NOTE_A3, NOTE_B3, NOTE_CS4, NOTE_D4, NOTE_F4, NOTE_G4, NOTE_GS4, NOTE_D4, 0, NOTE_D4, 0, NOTE_D4, 0, NOTE_G3, 0, NOTE_B3, NOTE_AS3, 0, NOTE_A3, 0, NOTE_A3, 0, NOTE_E4, 0, NOTE_D4, 0, NOTE_D4, NOTE_D4, NOTE_C5, NOTE_AS4, NOTE_A4, NOTE_G4, NOTE_G4, NOTE_D4, NOTE_AS3, NOTE_A3, NOTE_E4, NOTE_A4, NOTE_A4, NOTE_D4, 0, NOTE_A3, 0, NOTE_D4, NOTE_F4, NOTE_G4, NOTE_GS4, NOTE_A4, NOTE_GS4, NOTE_G4, NOTE_E4, NOTE_D4, NOTE_F4, NOTE_G4, NOTE_GS4, NOTE_A4, NOTE_GS4, NOTE_G4, NOTE_E4, NOTE_G4, NOTE_AS4, NOTE_C5, NOTE_CS5, NOTE_D5, NOTE_CS5, NOTE_C5, NOTE_A4, NOTE_D4, NOTE_F4, NOTE_G4, NOTE_GS4, NOTE_A4, NOTE_GS4, NOTE_G4, NOTE_F4, NOTE_E4, NOTE_D4, NOTE_C4, NOTE_AS3, NOTE_A3, NOTE_AS3, NOTE_C4, NOTE_CS4, NOTE_D4, NOTE_F4, NOTE_G4, NOTE_F4, NOTE_E4, NOTE_G4, NOTE_A4, NOTE_A3, NOTE_D4, NOTE_F4, NOTE_G4, NOTE_GS4, NOTE_A4, NOTE_GS4, NOTE_G4, NOTE_E4, NOTE_D4, NOTE_F4, NOTE_G4, NOTE_GS4, NOTE_A4, NOTE_GS4, NOTE_G4, NOTE_E4, NOTE_G4, NOTE_AS4, NOTE_C5, NOTE_CS5, NOTE_D5, NOTE_CS5, NOTE_C5, NOTE_A4, NOTE_D4, NOTE_F4, NOTE_G4, NOTE_GS4, NOTE_A4, NOTE_GS4, NOTE_G4, NOTE_F4, NOTE_E4, NOTE_E3, NOTE_E4, NOTE_G4, NOTE_A4, NOTE_A3, NOTE_A4, NOTE_A4, NOTE_D4, NOTE_F4, NOTE_G4, NOTE_F4, NOTE_E4, NOTE_G4, NOTE_A4, NOTE_A3, NOTE_D4, NOTE_F4, NOTE_G4, NOTE_GS4, NOTE_A4, 0, NOTE_D4, NOTE_F4, NOTE_G4, NOTE_GS4, NOTE_A4, NOTE_GS4, NOTE_G4, NOTE_D4, NOTE_A3, NOTE_CS4, NOTE_E4, NOTE_G4, NOTE_D4, NOTE_A3, NOTE_B3, NOTE_CS4, NOTE_D4, NOTE_F4, NOTE_G4, NOTE_GS4, NOTE_A4, NOTE_GS4, NOTE_G4, NOTE_D4, NOTE_A3, NOTE_CS4, NOTE_E4, NOTE_G4, NOTE_D4, NOTE_A3, NOTE_B3, NOTE_CS4, NOTE_D4, NOTE_A3, NOTE_D4, NOTE_F4, NOTE_G4, NOTE_F4, NOTE_E4, NOTE_D5, NOTE_C5, NOTE_C5, NOTE_AS4, NOTE_G4, NOTE_F4, NOTE_D4, NOTE_C4, NOTE_A3, NOTE_AS3, NOTE_D4, NOTE_AS4, NOTE_A4, NOTE_G4, NOTE_D4, NOTE_AS3, NOTE_D4, NOTE_E4, NOTE_D4, NOTE_CS4, NOTE_B3, NOTE_A3, 0, NOTE_A4, NOTE_A4, 0, NOTE_A4, 0, NOTE_D4, 0, NOTE_D4, 0, NOTE_D4, 0, NOTE_G3, 0, NOTE_B3, NOTE_AS3, 0, NOTE_A3, NOTE_A3, NOTE_B3, NOTE_CS4, NOTE_D4, NOTE_F4, NOTE_G4, NOTE_A4, NOTE_AS4, NOTE_G4, NOTE_F4, NOTE_D4, NOTE_G4, NOTE_E4, NOTE_D4, NOTE_AS3, NOTE_A3, NOTE_A3, NOTE_B3, NOTE_CS4, NOTE_D4, NOTE_F4, NOTE_G4, NOTE_GS4, NOTE_D4, 0, NOTE_D4, 0, NOTE_D4, 0, NOTE_G3, 0, NOTE_B3, NOTE_AS3, 0, NOTE_A3, 0, NOTE_A3, 0, NOTE_E4, 0, NOTE_D4, 0, NOTE_D4, NOTE_D4, NOTE_C5, NOTE_AS4, NOTE_A4, NOTE_G4, NOTE_G4, NOTE_D4, NOTE_AS3, NOTE_A3, NOTE_E4, NOTE_A4, NOTE_A4, NOTE_D4, 0, NOTE_A3, 0
};

const int Holding_fast_enkel_Durations2[] PROGMEM = {
  300, 300, 300, 300, 300, 300, 300, 300, 300, 300, 300, 300, 300, 300, 300, 300, 300, 300, 300, 300, 300, 300, 300, 300, 300, 300, 300, 300, 300, 900, 300, 300, 300, 300, 300, 300, 300, 300, 300, 300, 300, 300, 300, 300, 300, 300, 300, 300, 300, 300, 300, 300, 300, 300, 300, 300, 300, 300, 300, 300, 300, 300, 300, 300, 300, 300, 300, 300, 300, 300, 300, 300, 300, 300, 300, 300, 300, 300, 300, 300, 300, 300, 300, 300, 300, 300, 300, 300, 300, 300, 300, 600, 300, 450, 28, 112, 609, 450, 28, 112, 300, 300, 9, 300, 478, 112, 300, 9, 300, 300, 300, 300, 300, 300, 300, 300, 300, 300, 300, 300, 300, 300, 300, 300, 300, 300, 300, 300, 300, 300, 300, 300, 450, 28, 112, 300, 300, 9, 300, 478, 112, 300, 9, 450, 28, 112, 300, 300, 9, 300, 600, 300, 300, 300, 300, 300, 300, 300, 300, 300, 300, 300, 300, 300, 300, 478, 112, 300, 9, 450, 28, 112, 188, 112, 300, 9, 450, 28, 112, 188, 112, 300, 9, 200, 19, 200, 150, 28, 200, 19, 200, 150, 34, 300, 300, 600, 300, 300, 300, 300, 300, 300, 300, 300, 300, 300, 300, 300, 300, 300, 300, 300, 300, 300, 300, 300, 300, 300, 300, 300, 300, 300, 300, 300, 300, 300, 300, 300, 300, 300, 300, 300, 300, 300, 300, 300, 300, 300, 300, 300, 300, 300, 300, 300, 300, 300, 300, 300, 300, 300, 300, 300, 300, 300, 300, 300, 300, 600, 300, 450, 28, 112, 609, 450, 28, 112, 300, 300, 9, 300, 478, 112, 300, 9, 300, 300, 300, 300, 300, 300, 300, 300, 300, 300, 300, 300, 300, 300, 300, 300, 300, 300, 300, 300, 300, 300, 300, 300, 450, 28, 112, 300, 300, 9, 300, 478, 112, 300, 9, 450, 28, 112, 300, 300, 9, 300, 600, 300, 300, 300, 300, 300, 300, 300, 300, 300, 300, 300, 300, 300, 300, 478, 400, 22, 300, 300, 300, 300, 300, 300, 300, 300, 300, 300, 300, 300, 300, 300, 300, 300, 300, 300, 300, 300, 300, 300, 300, 300, 300, 300, 300, 300, 300, 300, 300, 300, 300, 300, 300, 300, 300, 300, 300, 300, 300, 300, 300, 300, 300, 300, 300, 300, 300, 300, 300, 300, 300, 300, 300, 300, 300, 300, 300, 300, 300, 300, 300, 300, 300, 300, 300, 300, 300, 300, 300, 300, 300, 300, 300, 300, 300, 300, 300, 300, 300, 300, 300, 300, 300, 300, 300, 300, 300, 300, 300, 300, 300, 300, 300, 300, 300, 300, 300, 300, 300, 900, 300, 300, 300, 300, 300, 300, 300, 300, 300, 300, 300, 300, 300, 300, 300, 300, 300, 300, 300, 300, 300, 300, 300, 300, 300, 300, 300, 300, 300, 300, 300, 300, 300, 300, 300, 300, 300, 300, 300, 300, 300, 300, 300, 300, 300, 300, 300, 300, 300, 300, 300, 300, 300, 300, 300, 300, 300, 300, 300, 300, 300, 600, 300, 450, 28, 112, 609, 450, 28, 112, 300, 300, 9, 300, 478, 112, 300, 9, 300, 300, 300, 300, 300, 300, 300, 300, 300, 300, 300, 300, 300, 300, 300, 300, 300, 300, 300, 300, 300, 300, 300, 300, 450, 28, 112, 300, 300, 9, 300, 478, 112, 300, 9, 450, 28, 112, 300, 300, 9, 300, 600, 300, 300, 300, 300, 300, 300, 300, 300, 300, 300, 300, 300, 300, 600, 956, 800, 2000
};

#endif

