#ifndef SANG_57_ENKEL_LYSERE_BASS_H
#define SANG_57_ENKEL_LYSERE_BASS_H

const int Sang_57_enkel_lysere_bass_Size1 = 98;
const int Sang_57_enkel_lysere_bass_Size2 = 76;

const int Sang_57_enkel_lysere_bass_Notes1[] PROGMEM = {
  NOTE_CS3, NOTE_E3, NOTE_D3, NOTE_D3, NOTE_CS3, NOTE_D3, NOTE_CS3, NOTE_D3, NOTE_E3, NOTE_CS3, 0, NOTE_CS3, NOTE_D3, NOTE_E3, NOTE_FS3, NOTE_E3, NOTE_E3, NOTE_D3, NOTE_D3, NOTE_CS3, NOTE_B2, 0, NOTE_E3, NOTE_FS3, NOTE_GS3, NOTE_GS3, NOTE_E3, NOTE_E3, NOTE_FS3, NOTE_FS3, NOTE_GS3, NOTE_A3, NOTE_FS3, NOTE_FS3, NOTE_GS3, NOTE_A3, NOTE_A3, 0, NOTE_CS4, NOTE_B3, NOTE_B3, NOTE_A3, NOTE_B3, NOTE_FS3, NOTE_FS3, NOTE_A3, NOTE_GS3, NOTE_A3, NOTE_E3, NOTE_E3, NOTE_CS3, NOTE_D3, 0, NOTE_A3, NOTE_GS3, NOTE_A3, NOTE_E3, NOTE_E3, NOTE_CS3, NOTE_D3, 0, NOTE_A3, NOTE_A3, NOTE_E3, NOTE_E3, NOTE_A2, NOTE_FS3, NOTE_E3, NOTE_E3, NOTE_D3, NOTE_E3, NOTE_B2, NOTE_B2, NOTE_CS4, NOTE_B3, NOTE_A3, NOTE_E3, NOTE_E3, NOTE_CS3, NOTE_D3, 0, NOTE_CS4, NOTE_B3, NOTE_A3, NOTE_E3, NOTE_E3, NOTE_A2, NOTE_FS3, NOTE_FS3, NOTE_GS3, NOTE_A3, NOTE_A3, NOTE_E3, NOTE_E3, NOTE_A2, NOTE_B2, NOTE_CS3, NOTE_A2
};

const int Sang_57_enkel_lysere_bass_Durations1[] PROGMEM = {
  75, 300, 300, 300, 300, 300, 150, 300, 450, 1200, 300, 300, 300, 300, 300, 300, 300, 300, 450, 450, 300, 1500, 300, 300, 300, 900, 300, 300, 300, 300, 300, 1200, 300, 300, 300, 300, 900, 300, 300, 300, 300, 300, 600, 600, 600, 300, 300, 300, 300, 300, 150, 600, 150, 300, 300, 300, 300, 300, 150, 600, 450, 300, 300, 300, 300, 300, 300, 300, 300, 300, 600, 600, 600, 300, 300, 300, 300, 300, 150, 600, 150, 300, 300, 300, 300, 300, 150, 450, 300, 300, 300, 300, 300, 300, 300, 600, 600, 1800
};

const int Sang_57_enkel_lysere_bass_Notes2[] PROGMEM = {
  0, NOTE_A1, NOTE_A1, NOTE_A1, NOTE_A1, NOTE_A1, NOTE_A1, NOTE_B1, NOTE_CS2, NOTE_D2, NOTE_D2, NOTE_D2, NOTE_FS2, NOTE_E2, 0, NOTE_E2, NOTE_E2, NOTE_D2, NOTE_CS2, NOTE_CS2, NOTE_CS2, NOTE_FS2, NOTE_FS2, NOTE_FS2, NOTE_E2, NOTE_D2, NOTE_D2, NOTE_B1, NOTE_B1, NOTE_E2, NOTE_E2, NOTE_E2, NOTE_E2, NOTE_A1, NOTE_A1, NOTE_A1, 0, NOTE_A2, 0, NOTE_A1, NOTE_A2, NOTE_A1, NOTE_A1, NOTE_A1, 0, NOTE_A2, 0, NOTE_A1, NOTE_A2, NOTE_A1, NOTE_CS2, NOTE_D2, NOTE_D2, NOTE_E2, NOTE_E2, NOTE_E2, NOTE_FS1, NOTE_GS1, NOTE_A1, NOTE_A1, NOTE_B1, 0, NOTE_B2, 0, NOTE_B1, NOTE_B2, NOTE_CS2, NOTE_CS2, NOTE_D2, 0, NOTE_D2, NOTE_E2, NOTE_E2, NOTE_D3, NOTE_E3, NOTE_E3
};

const int Sang_57_enkel_lysere_bass_Durations2[] PROGMEM = {
  75, 900, 300, 1200, 900, 300, 600, 300, 300, 900, 300, 450, 450, 300, 900, 300, 600, 600, 900, 300, 1200, 900, 300, 600, 600, 900, 300, 900, 300, 900, 300, 600, 600, 900, 150, 150, 150, 150, 150, 150, 600, 900, 150, 150, 150, 150, 150, 150, 600, 900, 300, 900, 300, 900, 300, 600, 300, 300, 900, 150, 150, 150, 150, 150, 150, 600, 900, 150, 900, 150, 300, 900, 300, 600, 600, 1800
};

#endif

