#ifndef SANG_57_ENKEL_H
#define SANG_57_ENKEL_H

const int Sang_57_enkel_Size1 = 99;
const int Sang_57_enkel_Size2 = 77;

const int Sang_57_enkel_Notes1[] PROGMEM = {
  NOTE_CS5, NOTE_E5, NOTE_D5, NOTE_D5, NOTE_CS5, NOTE_D5, NOTE_CS5, NOTE_D5, NOTE_E5, NOTE_CS5, 0, NOTE_CS5, NOTE_D5, NOTE_E5, NOTE_FS5, NOTE_E5, NOTE_E5, NOTE_D5, NOTE_D5, NOTE_CS5, NOTE_B4, 0, NOTE_E5, NOTE_FS5, NOTE_GS5, NOTE_GS5, NOTE_E5, NOTE_E5, NOTE_FS5, NOTE_FS5, NOTE_GS5, NOTE_A5, NOTE_FS5, NOTE_FS5, NOTE_GS5, NOTE_A5, NOTE_A5, 0, NOTE_CS6, NOTE_B5, NOTE_B5, NOTE_A5, NOTE_B5, NOTE_FS5, NOTE_FS5, NOTE_A5, NOTE_GS5, NOTE_A5, NOTE_E5, NOTE_E5, NOTE_CS5, NOTE_D5, 0, NOTE_A5, NOTE_GS5, NOTE_A5, NOTE_E5, NOTE_E5, NOTE_CS5, NOTE_D5, 0, NOTE_A5, NOTE_A5, NOTE_E5, NOTE_E5, NOTE_A4, NOTE_FS5, NOTE_E5, NOTE_E5, NOTE_D5, NOTE_E5, NOTE_B4, NOTE_B4, NOTE_CS6, NOTE_B5, NOTE_A5, NOTE_E5, NOTE_E5, NOTE_CS5, NOTE_D5, 0, NOTE_CS6, NOTE_B5, NOTE_A5, NOTE_E5, NOTE_E5, NOTE_A4, NOTE_FS5, NOTE_FS5, NOTE_GS5, NOTE_A5, NOTE_A5, NOTE_E5, NOTE_E5, NOTE_A4, NOTE_B4, NOTE_CS5, NOTE_A4, 0
};

const int Sang_57_enkel_Durations1[] PROGMEM = {
  300, 300, 300, 300, 300, 300, 150, 300, 450, 1200, 300, 300, 300, 300, 300, 300, 300, 300, 450, 450, 300, 1500, 300, 300, 300, 900, 300, 300, 300, 300, 300, 1200, 300, 300, 300, 300, 900, 300, 300, 300, 300, 300, 600, 600, 600, 300, 300, 300, 300, 300, 150, 600, 150, 300, 300, 300, 300, 300, 150, 600, 450, 300, 300, 300, 300, 300, 300, 300, 300, 300, 600, 600, 600, 300, 300, 300, 300, 300, 150, 600, 150, 300, 300, 300, 300, 300, 150, 450, 300, 300, 300, 300, 300, 300, 300, 600, 600, 1800, 2000
};

const int Sang_57_enkel_Notes2[] PROGMEM = {
  0, NOTE_A3, NOTE_A3, NOTE_A3, NOTE_A3, NOTE_A3, NOTE_A3, NOTE_B3, NOTE_CS4, NOTE_D4, NOTE_D4, NOTE_D4, NOTE_FS4, NOTE_E4, 0, NOTE_E4, NOTE_E4, NOTE_D4, NOTE_CS4, NOTE_CS4, NOTE_CS4, NOTE_FS4, NOTE_FS4, NOTE_FS4, NOTE_E4, NOTE_D4, NOTE_D4, NOTE_B3, NOTE_B3, NOTE_E4, NOTE_E4, NOTE_E4, NOTE_E4, NOTE_A3, NOTE_A3, NOTE_A3, 0, NOTE_A4, 0, NOTE_A3, NOTE_A4, NOTE_A3, NOTE_A3, NOTE_A3, 0, NOTE_A4, 0, NOTE_A3, NOTE_A4, NOTE_A3, NOTE_CS4, NOTE_D4, NOTE_D4, NOTE_E4, NOTE_E4, NOTE_E4, NOTE_FS3, NOTE_GS3, NOTE_A3, NOTE_A3, NOTE_B3, 0, NOTE_B4, 0, NOTE_B3, NOTE_B4, NOTE_CS4, NOTE_CS4, NOTE_D4, 0, NOTE_D4, NOTE_E4, NOTE_E4, NOTE_D5, NOTE_E5, NOTE_E5, 0
};

const int Sang_57_enkel_Durations2[] PROGMEM = {
  300, 900, 300, 1200, 900, 300, 600, 300, 300, 900, 300, 450, 450, 300, 900, 300, 600, 600, 900, 300, 1200, 900, 300, 600, 600, 900, 300, 900, 300, 900, 300, 600, 600, 900, 150, 150, 150, 150, 150, 150, 600, 900, 150, 150, 150, 150, 150, 150, 600, 900, 300, 900, 300, 900, 300, 600, 300, 300, 900, 150, 150, 150, 150, 150, 150, 600, 900, 150, 900, 150, 300, 900, 300, 600, 600, 1800, 2000
};

#endif

