#ifndef SONG69_H
#define SONG69_H

const int song69Size = 83;
const int song69DurationMultiplier = 18;

const int song69Notes[] PROGMEM = {
  NOTE_E5,
  NOTE_E5, NOTE_CS5, NOTE_E5, NOTE_FS5, NOTE_CS5, NOTE_FS5,
  NOTE_GS5, NOTE_E5, NOTE_CS5, NOTE_E5, NOTE_CS5, NOTE_E5,
  NOTE_E5, NOTE_D5, NOTE_E5, NOTE_FS5, NOTE_D5, NOTE_CS5,
  NOTE_CS5, NOTE_B4, 0, NOTE_B4,

  NOTE_D5, NOTE_CS5, NOTE_B4, NOTE_CS5, NOTE_CS5,
  NOTE_B5, NOTE_A5, NOTE_GS5, NOTE_B5, NOTE_A5, NOTE_A5,
  NOTE_A5, NOTE_GS5, NOTE_A5, NOTE_GS5, NOTE_FS5, NOTE_GS5,
  NOTE_FS5, NOTE_E5,

  NOTE_E5, NOTE_CS5, NOTE_E5, NOTE_A5, NOTE_CS6,
  NOTE_CS6, NOTE_B5, NOTE_B5, NOTE_FS5, NOTE_B5, NOTE_A5,
  NOTE_A5, NOTE_GS5, NOTE_GS5, NOTE_FS5, NOTE_GS5, NOTE_A5, NOTE_B5, NOTE_FS5,
  NOTE_E5,

  NOTE_B5, NOTE_CS6, NOTE_D6, NOTE_D6, NOTE_CS6,
  NOTE_CS6, NOTE_A5, NOTE_A5, NOTE_F5, NOTE_A5, NOTE_B5,
  NOTE_CS6, NOTE_A5, NOTE_A5, NOTE_E5, NOTE_D5, NOTE_E5, NOTE_B5, NOTE_GS5,
  NOTE_A5, NOTE_A5
};

const int song69Durations[] PROGMEM = {
  16,
  32, 16, 16, 32, 16, 16,
  32, 16, 16, 48, 32, 16,
  32, 16, 16, 32, 16, 16,
  32, 64, 16, 16,

  32, 16, 16, 48, 16,
  32, 16, 16, 16, 32, 16,
  32, 16, 16, 32, 16, 16,
  32, 96,

  32, 16, 16, 48, 16,
  16, 16, 16, 16, 48, 16,
  16, 16, 16, 16, 16, 16, 16, 16,
  128,

  32, 16, 16, 48, 16,
  16, 16, 16, 16, 48, 16,
  16, 16, 16, 16, 16, 16, 16, 16,
  64, 48
};

#endif
