#ifndef THUNDER_H
#define THUNDER_H

const int thunderSize = 169;

const int thunderNotes[] PROGMEM = {
  NOTE_B6,
  NOTE_DS7, NOTE_B6, NOTE_FS7, NOTE_B6,
  NOTE_DS7, NOTE_B6, NOTE_FS7, NOTE_B6,
  NOTE_DS7, NOTE_B6, NOTE_FS7, NOTE_B6,
  NOTE_DS7, NOTE_B6, NOTE_FS7, NOTE_B6,
  
  NOTE_DS7, NOTE_B6, NOTE_FS7, NOTE_B6,
  NOTE_DS7, NOTE_B6, NOTE_FS7, NOTE_B6,
  NOTE_DS7, NOTE_B6, NOTE_FS7, NOTE_B6,
  NOTE_DS7, NOTE_B6, NOTE_FS7, NOTE_B6,
  
  NOTE_E7, NOTE_B6, NOTE_G7, NOTE_B6,
  NOTE_E7, NOTE_B6, NOTE_G7, NOTE_B6,
  NOTE_E7, NOTE_B6, NOTE_G7, NOTE_B6,
  NOTE_E7, NOTE_B6, NOTE_G7, NOTE_B6,
  
  NOTE_E7, NOTE_B6, NOTE_G7, NOTE_B6,
  NOTE_E7, NOTE_B6, NOTE_G7, NOTE_B6,
  NOTE_E7, NOTE_B6, NOTE_G7, NOTE_B6,
  NOTE_E7, NOTE_B6, NOTE_G7, NOTE_B6,
  
  NOTE_B7, NOTE_B6, NOTE_A7, NOTE_B6,
  NOTE_GS7, NOTE_B6, NOTE_A7, NOTE_B6,
  NOTE_GS7, NOTE_B6, NOTE_FS7, NOTE_B6,
  NOTE_GS7, NOTE_B6, NOTE_E7, NOTE_B6,
  
  NOTE_FS7, NOTE_B6, NOTE_DS7, NOTE_B6,
  NOTE_E7, NOTE_B6, NOTE_DS7, NOTE_B6,
  NOTE_E7, NOTE_B6, NOTE_DS7, NOTE_B6,
  NOTE_E7, NOTE_B6, NOTE_DS7, NOTE_B6,
  
  NOTE_B7, NOTE_B6, NOTE_A7, NOTE_B6,
  NOTE_GS7, NOTE_B6, NOTE_A7, NOTE_B6,
  NOTE_GS7, NOTE_B6, NOTE_FS7, NOTE_B6,
  NOTE_GS7, NOTE_B6, NOTE_E7, NOTE_B6,
  
  NOTE_FS7, NOTE_B6, NOTE_DS7, NOTE_B6,
  NOTE_E7, NOTE_B6, NOTE_DS7, NOTE_B6,
  NOTE_E7, NOTE_B6, NOTE_DS7, NOTE_B6,
  NOTE_E7, NOTE_B6, NOTE_DS7, NOTE_B6,
  
  NOTE_D7, NOTE_D7, 0, NOTE_B5, NOTE_D6, NOTE_B5,
  //NOTE_D6, NOTE_D6, NOTE_E6, NOTE_D6, NOTE_E6, NOTE_E6+20, NOTE_E6+40, NOTE_E6+60, NOTE_E6+80, NOTE_E6+100, NOTE_E6+120, NOTE_E6+140, NOTE_E6, NOTE_D6,
  NOTE_D6, NOTE_D6, NOTE_E6, NOTE_D6, NOTE_E6, NOTE_E6+10, NOTE_E6+20, NOTE_E6+30, NOTE_E6+40, NOTE_E6+50, NOTE_E6+60, NOTE_E6+70, NOTE_E6, NOTE_D6,
  NOTE_D7, NOTE_D7, 0, NOTE_B5, NOTE_D6, NOTE_B5,
  //NOTE_D6, NOTE_D6, NOTE_E6, NOTE_D6, NOTE_E6, NOTE_E6+20, NOTE_E6+40, NOTE_E6+60, NOTE_E6+80, NOTE_E6+100, NOTE_E6+120, NOTE_E6+140, NOTE_E6, NOTE_D6
  NOTE_D6, NOTE_D6, NOTE_E6, NOTE_D6, NOTE_E6, NOTE_E6+10, NOTE_E6+20, NOTE_E6+30, NOTE_E6+40, NOTE_E6+50, NOTE_E6+60, NOTE_E6+70, NOTE_E6, NOTE_D6
};

const int thunderDurations[] PROGMEM = {
  120,
  120, 120, 120, 120,
  120, 120, 120, 120,
  120, 120, 120, 120,
  120, 120, 120, 120,
  
  120, 120, 120, 120,
  120, 120, 120, 120,
  120, 120, 120, 120,
  120, 120, 120, 120,
  
  120, 120, 120, 120,
  120, 120, 120, 120,
  120, 120, 120, 120,
  120, 120, 120, 120,
  
  120, 120, 120, 120,
  120, 120, 120, 120,
  120, 120, 120, 120,
  120, 120, 120, 120,
  
  120, 120, 120, 120,
  120, 120, 120, 120,
  120, 120, 120, 120,
  120, 120, 120, 120,
  
  120, 120, 120, 120,
  120, 120, 120, 120,
  120, 120, 120, 120,
  120, 120, 120, 120,
  
  120, 120, 120, 120,
  120, 120, 120, 120,
  120, 120, 120, 120,
  120, 120, 120, 120,
  
  120, 120, 120, 120,
  120, 120, 120, 120,
  120, 120, 120, 120,
  120, 120, 120, 120,
  
  480, 480, 240, 240, 240, 240,
  240, 240, 240, 240, 60, 60, 60, 60, 60, 60, 60, 60, 240, 240,
  480, 480, 240, 240, 240, 240,
  240, 240, 240, 240, 60, 60, 60, 60, 60, 60, 60, 60, 240, 240
};

#endif
